<svg width="37" height="43" viewBox="0 0 37 43" fill="none" xmlns="http://www.w3.org/2000/svg">
<path d="M18.5955 0C20.4182 -1.42578e-06 22.1712 0.700558 23.4919 1.95678C24.8126 3.213 25.5999 4.92877 25.6911 6.7492L25.7 7.10442H34.5805C35.0332 7.10492 35.4686 7.27826 35.7978 7.58903C36.1269 7.89979 36.325 8.32452 36.3516 8.77644C36.3781 9.22835 36.2311 9.67334 35.9405 10.0205C35.65 10.3676 35.2378 10.5907 34.7883 10.6442L34.5805 10.6566H33.0726L30.9768 36.5043C30.8416 38.1722 30.0835 39.7281 28.8533 40.8625C27.6231 41.9969 26.011 42.6266 24.3377 42.6265H12.8534C11.18 42.6266 9.56791 41.9969 8.33775 40.8625C7.10759 39.7281 6.3495 38.1722 6.2143 36.5043L4.11672 10.6566H2.61058C2.17555 10.6566 1.75567 10.4969 1.43058 10.2078C1.10549 9.91871 0.897804 9.52037 0.846905 9.08833L0.834473 8.88053C0.83453 8.4455 0.994244 8.02562 1.28332 7.70053C1.5724 7.37544 1.97073 7.16775 2.40277 7.11685L2.61058 7.10442H11.4911C11.4911 5.22021 12.2396 3.41317 13.5719 2.08084C14.9043 0.7485 16.7113 0 18.5955 0ZM14.5993 16.429C14.2774 16.429 13.9664 16.5456 13.7238 16.7571C13.4812 16.9687 13.3234 17.261 13.2796 17.5799L13.2672 17.7611V31.9699L13.2796 32.1511C13.3235 32.4699 13.4813 32.7621 13.7239 32.9736C13.9665 33.1851 14.2775 33.3016 14.5993 33.3016C14.9211 33.3016 15.2321 33.1851 15.4747 32.9736C15.7173 32.7621 15.8751 32.4699 15.9189 32.1511L15.9314 31.9699V17.7611L15.9189 17.5799C15.8752 17.261 15.7174 16.9687 15.4748 16.7571C15.2322 16.5456 14.9212 16.429 14.5993 16.429ZM22.5918 16.429C22.2699 16.429 21.9589 16.5456 21.7163 16.7571C21.4737 16.9687 21.3159 17.261 21.2721 17.5799L21.2597 17.7611V31.9699L21.2721 32.1511C21.316 32.4699 21.4738 32.7621 21.7164 32.9736C21.959 33.1851 22.2699 33.3016 22.5918 33.3016C22.9136 33.3016 23.2246 33.1851 23.4671 32.9736C23.7097 32.7621 23.8675 32.4699 23.9114 32.1511L23.9238 31.9699V17.7611L23.9114 17.5799C23.8676 17.261 23.7099 16.9687 23.4673 16.7571C23.2247 16.5456 22.9137 16.429 22.5918 16.429ZM18.5955 3.55221C17.6993 3.55193 16.8362 3.89039 16.1791 4.49976C15.5219 5.10912 15.1194 5.94435 15.0522 6.83801L15.0433 7.10442H22.1477L22.1389 6.83801C22.0716 5.94435 21.6691 5.10912 21.012 4.49976C20.3549 3.89039 19.4917 3.55193 18.5955 3.55221Z" fill="#FF0000"/>
</svg>
