<svg width="38" height="38" viewBox="0 0 38 38" fill="none" xmlns="http://www.w3.org/2000/svg">
<path d="M2.15897 37.9159C1.87148 37.9154 1.58725 37.8551 1.32433 37.7388C1.06142 37.6225 0.825582 37.4528 0.631817 37.2404C0.434547 37.0299 0.284018 36.78 0.190099 36.5071C0.0961804 36.2343 0.0609946 35.9447 0.0868481 35.6573L0.594518 30.075L24.0468 6.63102L31.3759 13.958L7.92983 37.4L2.34753 37.9076C2.28485 37.9134 2.22192 37.9162 2.15897 37.9159ZM32.8388 12.4931L25.5118 5.16603L29.9068 0.771056C30.0992 0.578398 30.3277 0.42556 30.5793 0.321282C30.8308 0.217004 31.1005 0.16333 31.3728 0.16333C31.6451 0.16333 31.9147 0.217004 32.1663 0.321282C32.4178 0.42556 32.6464 0.578398 32.8388 0.771056L37.2338 5.16603C37.4265 5.35847 37.5793 5.58701 37.6836 5.83856C37.7879 6.09011 37.8415 6.35975 37.8415 6.63206C37.8415 6.90437 37.7879 7.174 37.6836 7.42556C37.5793 7.67711 37.4265 7.90564 37.2338 8.09808L32.8409 12.491L32.8388 12.4931Z" fill="#4ECB71"/>
</svg>
