<svg width="58" height="58" viewBox="0 0 58 58" fill="none" xmlns="http://www.w3.org/2000/svg">
<path d="M28.9999 0.0634766C13.0203 0.0634766 0.0634766 13.0203 0.0634766 28.9999C0.0634766 44.9795 13.0203 57.9363 28.9999 57.9363C44.9795 57.9363 57.9363 44.9795 57.9363 28.9999C57.9363 13.0203 44.9795 0.0634766 28.9999 0.0634766ZM28.9999 53.0274C15.7331 53.0274 4.97233 42.2667 4.97233 28.9999C4.97233 15.7331 15.7331 4.97233 28.9999 4.97233C42.2667 4.97233 53.0274 15.7331 53.0274 28.9999C53.0274 42.2667 42.2667 53.0274 28.9999 53.0274Z" fill="#1442A7"/>
<path d="M29.0002 4.97241C15.7334 4.97241 4.97266 15.7331 4.97266 29C4.97266 42.2668 15.7334 53.0275 29.0002 53.0275C42.267 53.0275 53.0278 42.2668 53.0278 29C53.0278 15.7331 42.267 4.97241 29.0002 4.97241ZM41.4015 30.5501C41.4015 30.8343 41.169 31.0668 40.8848 31.0668H31.0671V40.8846C31.0671 41.1688 30.8346 41.4013 30.5504 41.4013H27.45C27.1658 41.4013 26.9333 41.1688 26.9333 40.8846V31.0668H17.1156C16.8314 31.0668 16.5989 30.8343 16.5989 30.5501V27.4498C16.5989 27.1656 16.8314 26.9331 17.1156 26.9331H26.9333V17.1154C26.9333 16.8312 27.1658 16.5986 27.45 16.5986H30.5504C30.8346 16.5986 31.0671 16.8312 31.0671 17.1154V26.9331H40.8848C41.169 26.9331 41.4015 27.1656 41.4015 27.4498V30.5501Z" fill="#FF0000" fill-opacity="0.05"/>
<path d="M40.8845 26.9331H31.0668V17.1154C31.0668 16.8312 30.8343 16.5986 30.5501 16.5986H27.4498C27.1656 16.5986 26.9331 16.8312 26.9331 17.1154V26.9331H17.1154C16.8312 26.9331 16.5986 27.1656 16.5986 27.4498V30.5501C16.5986 30.8343 16.8312 31.0668 17.1154 31.0668H26.9331V40.8845C26.9331 41.1687 27.1656 41.4013 27.4498 41.4013H30.5501C30.8343 41.4013 31.0668 41.1687 31.0668 40.8845V31.0668H40.8845C41.1687 31.0668 41.4013 30.8343 41.4013 30.5501V27.4498C41.4013 27.1656 41.1687 26.9331 40.8845 26.9331Z" fill="#1442A7"/>
</svg>
