<svg width="34" height="34" viewBox="0 0 34 34" fill="none" xmlns="http://www.w3.org/2000/svg">
<path fill-rule="evenodd" clip-rule="evenodd" d="M24.2083 21.8316L33.1749 30.7983C33.4901 31.1137 33.6671 31.5414 33.6669 31.9872C33.6668 32.4331 33.4895 32.8606 33.1741 33.1758C32.8587 33.491 32.431 33.6679 31.9852 33.6678C31.5393 33.6676 31.1118 33.4904 30.7966 33.175L21.8299 24.2083C19.1495 26.2844 15.7787 27.2614 12.4035 26.9406C9.02823 26.6197 5.90199 25.025 3.66074 22.481C1.41949 19.937 0.231589 16.6347 0.338692 13.2459C0.445794 9.85711 1.83986 6.63641 4.23728 4.23899C6.63471 1.84157 9.8554 0.447503 13.2442 0.340401C16.633 0.233298 19.9353 1.4212 22.4793 3.66245C25.0233 5.9037 26.618 9.02994 26.9389 12.4052C27.2597 15.7804 26.2827 19.1512 24.2066 21.8316H24.2083ZM13.6666 23.6666C16.3188 23.6666 18.8623 22.6131 20.7377 20.7377C22.613 18.8624 23.6666 16.3188 23.6666 13.6666C23.6666 11.0145 22.613 8.47094 20.7377 6.59558C18.8623 4.72022 16.3188 3.66665 13.6666 3.66665C11.0144 3.66665 8.4709 4.72022 6.59554 6.59558C4.72017 8.47094 3.6666 11.0145 3.6666 13.6666C3.6666 16.3188 4.72017 18.8624 6.59554 20.7377C8.4709 22.6131 11.0144 23.6666 13.6666 23.6666Z" fill="#1442A7"/>
</svg>
